/* XPM */
static char *c62f2abaa5064733c60dfc901bc133390YtG57w5ikQABroJ[] = {
/* columns rows colors chars-per-pixel */
"32 32 177 2 ",
"   c #385B12",
".  c #395E18",
"X  c #386215",
"o  c #38631A",
"O  c #386C1C",
"+  c #38721F",
"@  c #3A6522",
"#  c #3A6C22",
"$  c #3B6B29",
"%  c #387621",
"&  c #387A24",
"*  c #3A732D",
"=  c #3A7B2B",
"-  c #3A7434",
";  c #3A7A34",
":  c #3B7A3C",
">  c #406824",
",  c #426C2A",
"<  c #447230",
"1  c #427B32",
"2  c #467A3C",
"3  c #3B7D43",
"4  c #388027",
"5  c #38842A",
"6  c #388B2D",
"7  c #398C31",
"8  c #3A8438",
"9  c #3A8C3C",
"0  c #3A8236",
"q  c #389132",
"w  c #3B953C",
"e  c #4F853F",
"r  c #428F3E",
"t  c #43863A",
"y  c #42903E",
"u  c #3B8245",
"i  c #3B8E45",
"p  c #3C834B",
"a  c #3A9542",
"s  c #3A9847",
"d  c #3B954D",
"f  c #3B9A4B",
"g  c #3D8B54",
"h  c #3D8E59",
"j  c #3C9052",
"k  c #3C9C53",
"l  c #3D925C",
"z  c #3C9D5B",
"x  c #3DA15C",
"c  c #35A15B",
"v  c #3D9462",
"b  c #3D9B64",
"n  c #3E9A69",
"m  c #3E9F71",
"M  c #1BA26A",
"N  c #23A56F",
"B  c #3CA262",
"V  c #3EA46B",
"C  c #32A362",
"Z  c #2BA974",
"A  c #3FA575",
"S  c #3EA873",
"D  c #3FA678",
"F  c #36AD79",
"G  c #3FAA7E",
"H  c #3AB07E",
"J  c #498349",
"K  c #458748",
"L  c #439241",
"P  c #429A43",
"I  c #4D964B",
"U  c #479E4B",
"Y  c #4B9F4B",
"T  c #4A8B54",
"R  c #408E59",
"E  c #418C56",
"W  c #528D54",
"Q  c #5F8D55",
"!  c #419E51",
"~  c #49915B",
"^  c #5D965F",
"/  c #62925B",
"(  c #4DA04D",
")  c #45A052",
"_  c #4AA254",
"`  c #4DA55B",
"'  c #44A25B",
"]  c #51A65B",
"[  c #419461",
"{  c #4C9A68",
"}  c #5A9B67",
"|  c #5B9E6A",
" . c #6A9B66",
".. c #43A564",
"X. c #4EA760",
"o. c #4FA965",
"O. c #42A76B",
"+. c #4CA968",
"@. c #45A86B",
"#. c #50A760",
"$. c #53AA64",
"%. c #56A668",
"&. c #5DA26F",
"*. c #55AE6D",
"=. c #59AC64",
"-. c #4EA170",
";. c #42AA75",
":. c #4DAD72",
">. c #45AE7D",
",. c #49AE7A",
"<. c #5DA472",
"1. c #54AE70",
"2. c #5CA971",
"3. c #50AA7D",
"4. c #5EAC7A",
"5. c #41B17F",
"6. c #5EB477",
"7. c #5DB57C",
"8. c #5FB87F",
"9. c #54B57E",
"0. c #64A163",
"q. c #63B26C",
"w. c #61AA79",
"e. c #65B371",
"r. c #6BB777",
"t. c #61B27E",
"y. c #6FBA7C",
"u. c #41AD84",
"i. c #44B184",
"p. c #4BB485",
"a. c #43B28A",
"s. c #4BB58D",
"d. c #4DB88A",
"f. c #53B585",
"g. c #5BB384",
"h. c #5EB884",
"j. c #54B689",
"k. c #53BB8C",
"l. c #5CBA8B",
"z. c #4FB890",
"x. c #54BA92",
"c. c #5CBE95",
"v. c #62BB85",
"b. c #6CBE87",
"n. c #68B78A",
"m. c #63BC8B",
"M. c #68BC8E",
"N. c #5FC098",
"B. c #79C38D",
"V. c #62C196",
"C. c #6AC293",
"Z. c #64C29A",
"A. c #6CC69E",
"S. c #6DC89F",
"D. c #75C390",
"F. c #7DC692",
"G. c #76C79A",
"H. c #70C89F",
"J. c #6FC8A0",
"K. c #70C8A0",
"L. c #7BCCA4",
"P. c #7ECFAA",
"I. c #86BE94",
"U. c #83C997",
"Y. c #84CB9A",
"T. c #83CEA9",
"R. c #85D2AD",
"E. c #8ED2A8",
"W. c #93D3AC",
"Q. c #8DD6B1",
"!. c #97D4B0",
"~. c #94D9B5",
"^. c #99DBB6",
"/. c #96DBB9",
"(. c #9CDDBB",
"). c #9FE0BF",
"_. c #A0E0C0",
/* pixels */
"K.K.K.K.K.c.a.x.K.K.K.K.Z.x.S s U m.K.K.K.K.x.a.x.K.K.K.K.K.K.K.",
"K.A.Z.Z.A.Z.x.c.K.K.A.Z.c.,.O.#.=.6.m.C.K.K.Z.s.Z.K.K.A.Z.Z.A.K.",
"K.Z.z.x.A.A.Z.A.K.K.A.x.i.x _ B.B.] $.C.K.K.A.Z.A.K.K.A.x.z.Z.K.",
"K.Z.x.j.7.6.6.6.6.l.c.s.i.1.r.E.Y.( ) l.g.<.2.6.2.&.n.A.c.x.Z.K.",
"K.A.A.7.P w w w w ..a.a.s.L.^.(.Y.( f >.[ $ = w = > | J.A.A.A.K.",
"K.Z.k.9.e.q.q.q.q.o.B B :.L.(.~.D.Y 9 g T / 0.q.0./ ^ | g.N.Z.K.",
"K.x.Z p.Q.(.(.(.^.e.q q U F./.P.v.P & o Q W.^.(.^.!./ @ [ s.Z.K.",
"K.V.d.d.c.L.(._.(.U.e.Y P b.R.L.t.t = u <.T./._.I. .e = b s.Z.K.",
"K.K.K.k.N k.(.(.).).^.q.P 7.J.A.w., - A x.A.R.(. .  & w V s.Z.K.",
"K.K.K.V.d.d.k.S.R.R.R.b.*.$.*.f.-.$ - D s.x.h.e.I & i ..f.c.Z.K.",
"K.A.Z.Z.Z.p.M 5.C.C.C.A.C._ a V b $ : D u.G z 7 6 7 z u.c.K.K.K.",
"K.V.p.H H Z M C ` ` $.v.C._ q s a 5 i D n 3 * O O O - K 4.K.K.K.",
"C.j.F Z Z Z Z c P w w *.v.` w 7 7 w k V g $ @ > > > > < } M.M.C.",
"_ *.C.K.K.K.K.C.6._ q P ` *.%.1 ; z l : p l { <.<.<.<.| W J I _ ",
"a ] F.W.(.(./.R.A.*.a q w *.2.< $ l h - p u.x.Z.Z.Z.m.w.J * 9 a ",
"S @.] y.^.~.P.L.A.f.V s q P L # . $ 3 v A u.a.s.s.s.~ 2 E n V S ",
"s.,.k $.F.G.Z.Z.Z.x.u.B a 7 & X   X ; b S S V n n v : # j ;.p.s.",
"Z.c.>..._ +.d.s.s.a.u.G V ; X   X & 7 w a a 0 $ $ $ = 5 w ! g.Z.",
"K.Z.x.,.k z V V V b v v g $     X % & & & & O   X O 4 q a ' v.K.",
"K.A.Z.c.>.B w w w = @ @ o .       . X X X X     + 6 6 w B i.V.K.",
"K.Z.Z.f.O...` ` ` K : @   o O       . O * : : : ; & 9 x ,.x.Z.K.",
"K.Z.s.O.a X.C.C.C.j.A : . & 4 o     O 5 d D G G u o g i.c.A.A.K.",
"K.m.@...o.7.A.Z.x.,.z 8 % 5 6 & O   O 6 a x B B j u p R 3.c.Z.K.",
"K.8.P ` C.H.K.x.a.x q q 7 q q 7 & X O 6 q q q q x u.3 o l s.Z.K.",
"x.:.a r W W W T p ; % i x x x x d = % + + + + + ; u $ o u ..p.x.",
"a.V a = X           o g u.u.a.u.V a & X               X & w V a.",
"a.G V d = & & & & & & ; p m G B a = + % & & & & & & & & 6 w V a.",
"a.a.a.O.a w w q q q 6 + @ h V a & o O 6 q q q w w w w w w f ;.a.",
"c.c.c.f.O.V V f q q 6 5 = ; - # + & 4 6 q q s V V V :.6.6.7.l.c.",
"K.K.K.Z.s.s.s.@.P P P P L 1 , , 1 y P P P P ..d.s.s.N.K.K.K.K.K.",
"K.K.K.Z.Z.Z.Z.m.7.7.7.7.7.4.<.<.4.7.7.7.7.7.m.Z.Z.Z.Z.K.K.K.K.K.",
"K.K.K.K.K.K.K.K.K.K.K.K.K.K.K.K.K.K.K.K.K.K.K.K.K.K.K.K.K.K.K.K."
};
