/* XPM */
static char *_c11f181b18e49f5ff3b8f9ab50d11f4Zj0RPv3hJ8pRlMIL[] = {
/* columns rows colors chars-per-pixel */
"80 72 24 1 ",
"  c #87B9E1",
". c #787880",
"X c #DA675D",
"o c #EA906C",
"O c #CA4F44",
"+ c #AA1E23",
"@ c #404769",
"# c #F8C983",
"$ c #585771",
"% c #8FA0B1",
"& c #F0F0F8",
"* c #C7D8E9",
"= c #5D9FDA",
"- c #A7B8C9",
"; c #6DB7F2",
": c #96CFF9",
"> c #C9B163",
", c #BA6044",
"< c #3475DB",
"1 c #5D96EB",
"2 c #F2A07D",
"3 c #96C7F2",
"4 c #B8C0D9",
"5 c #DA8864",
/* pixels */
"           ..........................................................           ",
"         ..XoooooooooooooooooooooooooooooooooooooooooooooooooooooooO+@@         ",
"       ..##XoooooooooooooooooooooooooooooooooooooooooooooooooooooooO+OO@@       ",
"     ..X###XoooooooooooooooooooooooooooooooooooooooooooooooooooooooO+OOO+@@     ",
"   ..##X###XooOOOOOOOOOOOOOOOOOOOOOOOOOOOOOOOOOOOOOOOOOOOOOOOOOOOOoO+OOO+OO@@   ",
" ..X###X###XooOXXXXXXXXXXXXXXXXXXXXXXXXXXXXXXXXXXXXXXXXXXXXXXXXXXXoO+OOO+OOO+@@ ",
".##X###X###XoooooooooooooooooooooooooooooooooooooooooooooooooooooooO+OOO+OOO+OO@",
".##X###X###XoooooooooooooooooooooooooooooooooooooooooooooooooooooooO+OOO+OOO+OO@",
".##X###X###XoooooooooooooooooooooooooooooooooooooooooooooooooooooooO+OOO+OOO+OO@",
".##X###X###XoooooooooooooooooooooooooooooooooooooooooooooooooooooooO+OOO+OOO+OO@",
".##X###X###XoooooooooooooooooooooooooooooooooooooooooooooooooooooooO+OOO+OOO+OO@",
".##X###X###XooOOOOOOOOOOOOOOOOOOOOOOOOOOOOOOOOOOOOOOOOOOOOOOOOOOOooO+OOO+OOO+OO@",
".##X###X###XooOXXXXXXXXXXXXXXXXXXXXXXXXXXXXXXXXXXXXXXXXXXXXXXXXXOooO+OOO+OOO+OO@",
".##X###X###XoooooooooooooooooooooooooooooooooooooooooooooooooooooooO+OOO+OOO+OO@",
".##X###X###XoooooooooooooooooooooooooooooooooooooooooooooooooooooooO+OOO+OOO+OO@",
".##X###X###XoooooooooooooooooooooooooooooooooooooooooooooooooooooooO+OOO+OOO+OO@",
".##X###X###XoooooooooooooooooooooooooooooooooooooooooooooooooooooooO+OOO+OOO+OO@",
".##X###X###XoooooooooooooooooooooooooooooooooooooooooooooooooooooooO+OOO+OOO+OO@",
".##X###X###XoooooooooooooooooooooooooooooooooooooooooooooooooooooooO+OOO+OOO+OO@",
".##X###X###XooOOOOOOOOOOOOOOOOOOOOOOOOOOOOOOOOOOOOOOOOOOOOOOOOOOOooO+OOO+OOO+OO@",
".##X###X###XooOXXXXXXXXXXXXXXXXXXXXXXXXXXXXXXXXXXXXXXXXXXXXXXXXXOooO+OOO+OOO+OO@",
".##X###X###XoooooooooooooooooooooooooooooooooooooooooooooooooooooooO+OOO+OOO+OO@",
".##X###X###XoooooooooooooooooooooooooooooooooooooooooooooooooooooooO+OOO+OOO+OO@",
".##X###X###XoooooooooooooooooooooooooooooooooooooooooooooooooooooooO+OOO+OOO+OO@",
".##X###X###XoooooooooooooooooooooooooooooooooooooooooooooooooooooooO+OOO+OOO+OO@",
".##X###X###XoooooooooooooooooooooooooooooooooooooooooooooooooooooooO+OOO+OOO+OO@",
".##X###X###XoooooooooooooooooooooooooooooooooooooooooooooooooooooooO+OOO+OOO+OO@",
".##X###X###XooOOOOOOOOOOOOOOOOOOOOOOOOOOOOOOOOOOOOOOOOOOOOOOOOOOOooO+OOO+OOO+OO@",
".##X###X###XooOXXXXXXXXXXXXXXXXXXXXXXXXXXXXXXXXXXXXXXXXXXXXXXXXXOooO+OOO+OOO+OO@",
".##X###X###XoooooooooooooooooooooooooooooooooooooooooooooooooooooooO+OOO+OOO+OO@",
".##X###X###XoooooooooooooooooooooooooooooooooooooooooooooooooooooooO+OOO+OOO+OO@",
".##X###X###XoooooooooooooooooooooooooooooooooooooooooooooooooooooooO+OOO+OOO+OO@",
"$##X###X#+$$$$$$$$$$$$$$$$$$$$$$$$$$$$$$$$$$$$$$$$$$$$$$$$$$$$$$$$$$$@@O+OOO+OO@",
"$##X###$$++++++++++++++++++++++++++++++++++++++++++++++++++++++++++++++@@OOO+OO@",
"$##X#$$+++@@@@@@@@@@@@@@@@@@@@@@@@@@@@@@@@@@@@@@@@@@@@@@@@@@@@@@@@@@@@+++@@O+OO@",
"$##$$+++@@............................................................@@+++@@OO@",
"$$$+++@@................................................................@@+++@@@",
"$+++@@.@................................................................@.@@+++@",
"$+@@...@%%%%%%%%%%%%%%%%%%%%%%%%%%%%%%%%%%%%%%%%%%%%%%%%%%%%%%%%%%%%%%%%@...@@+@",
"@@@....@%%%%%%%%%%%%%%%%%%%%%%%%%%%%%%%%%%%%%%%%%%%%%%%%%%%%%%%%%%%%%%%%@....@@@",
"@.@&***%*********@@@@@@@@@@@@@@@@@@@@@@**@@@@@@@@@@@@@@@@@@@@@@*********%***.@..",
"@.@&***%*********@=========@@=========@**@=========@@=========@*********%***.@..",
"@.@&***%---------@=========@@=========@--@=========@@=========@---------%***.@..",
"@.@&***%*********@;;;;;;;;;@@;;;;;;;;;@**@;;;;;;;;;@@;;;;;;;;;@*********%***.@..",
"@.@&***%*********@;;;;;;;;;@@;;;;;;;;;@**@;;;;;;;;;@@;;;;;;;;;@*********%***.@..",
"@.@&***%*********@:::::::::@@:::::::::@**@:::::::::@@:::::::::@*********%***.@..",
"@.@&***%---------@:::::::::@@:::::::::@--@:::::::::@@:::::::::@---------%***.@..",
"@.@&***%*********@>>>>>>>>>@@>>>>>>>>>@**@>>>>>>>>>@@>>>>>>>>>@*********%***.@..",
"@.@&***%*********@@@@@@@@@@@@@@@@@@@@@@**@@@@@@@@@@@@@@@@@@@@@@*********%***.@..",
"@.@&***%*********&&&&&&&&&&&&&&&&&&&&&&**&&&&&&&&&&&&&&&&&&&&&&*********%***.@..",
"@.@&***%----------------------------------------------------------------%***.@..",
"@.@&***%----------------------------------------------------------------%***.@..",
"@.@&***%----------------------------------------------------------------%***.@..",
"@.@&***%................................................................%***.@..",
"@.@&***%****************************************************************%***.@..",
"@.@&***%********@@@@@@@@@@@@@@@@****************************************%***.@..",
"@.@&***%********@..............@*********@@@@@@@@@@@@@@@@@@@@@@*********%***.@..",
"@.@&***%********@.$$$$$$$$$$$$.@*********@=========@@=========@*********%***.@..",
"@.@&***%--------@,$<<<<<<<<<<$,@---------@=========@@=========@---------%***.@..",
"@.@&***%********@,$1111111111$2@*********@;;;;;;;;;@@;;;;;;;;;@*********%***.@..",
"@.@&***%********@,$1111111111$2@*********@;;;;;;;;;@@;;;;;;;;;@*********%***.@..",
"@.@&***%********@,$3333333333$2@*********@:::::::::@@:::::::::@*********%***.@..",
"@.@&***%--------@,$3333333333$2@---------@:::::::::@@:::::::::@---------%***.@..",
"@.@&***%********@,$$$$$$$$$$$$2@*********@>>>>>>>>>@@>>>>>>>>>@*********%***.@..",
"@.@&***%********@$$222222222222@*********@@@@@@@@@@@@@@@@@@@@@@*********%***.@..",
"@.@&***%********@&4$55555555555@*********&&&&&&&&&&&&&&&&&&&&&&*********%***.@..",
"@.@*---.--------@44$,,,,,,,,,,,@----------------------------------------.---.@..",
"@.@*---.--------@$$,,,,,,,,,,,,@----------------------------------------.---.@..",
"@.@*---.--------@,,,,,,,,,,,,,,@----------------------------------------.---.@..",
"@.@.............@@@@@@@@@@@@@@@@.............................................@..",
"@.@@@@@@@@@@@@@@@..............@@@@@@@@@@@@@@@@@@@@@@@@@@@@@@@@@@@@@@@@@@@@@@@..",
"@..............................................................................."
};
