/* XPM */
static char *fb53e3609d084a14ffeb7e7b129a89569wtN5bTkPj9SeVj5[] = {
/* columns rows colors chars-per-pixel */
"112 71 12 1 ",
"  c black",
". c #404769",
"X c #787880",
"o c #D8E0F1",
"O c #F0F0F8",
"+ c #97A8B9",
"@ c #585771",
"# c #B8C0D9",
"$ c #D1B962",
"% c #E0D98C",
"& c #F0E9BE",
"* c #D9C973",
/* pixels */
" .............................................................................................................. ",
".XooooooOoooooooooooooooooooooooooooooooooooooooooooooooooooooooooooooooooooooooooooooooooooooooooooooooooooooX.",
".+++++++++++++++++++++++++++++++++++++++++++++++++++++++++++++++++++++++++++++++++++++++++++++++++++++++++++++o.",
".+++@@@@@@@@@@@@@@@@@@@@@@@@@@@@@@@@@@@@@@@@@@@@@@@@@@@@@@@@@@@@@@@@@@@@@@@@@@@@@@@@@@@@@@@@@@@@@@@@@@@@@@@@++o.",
".++@@@@@@@@@@@@@@@@@@@@@@@@@@@@@@@@@@@@@@@@@@@@@@@@@@@@@@@@@@@@@@@@@@@@@@@@@@@@@@@@@@@@@@@@@@@@@@@@@@@@@@@@@@+o.",
".++@@@@@@@@@@@@@@@@@@@@@@@@@@@@@@@@@@@@@@@@@@@@@@@@@@@@@@@@@@@@@@@@@@@@@@@@@@@@@@@@@@@@@@@@@@@@@@@@@@@@@@@@@@+o.",
".++@@@@@@@@@@@@@@@@@@@@@@@@@@@@@@@@@@@@@@@@@@@@@@@@@@@@@@@@@@@@@@@@@@@@@@@@@@@@@@@@@@@@@@@@@@@@@@@@@@@@@@@@@@+o.",
".++@XXXXXXX@XXXXXXX@XXXXXXX@XXXXXXX@XXXXXXX@XXXXXXX@XXXXXXX@XXXXXXX@XXXXXXX@XXXXXXX@XXXXXXX@XXXXXXX@XXXXXXXX@+o.",
".++@X++++++@+++++++@+++++++@+++++++@+++++++@+++++++@+++++++@+++++++@+++++++@+++++++@+++++++@+++++++@+++++++X@+o.",
".++@X######@#######@#######@#######@#######@#######@#######@#######@#######@#######@#######@#######@######+X@+o.",
".++@X######@#######@#######@#######@#######@#######@#######@#######@#######@#######@#######@#######@######+X@+o.",
".++@X######X#######X#######X#######X#######X#######X#######X#######X#######X#######X#######X#######X######+X@+o.",
".++@X@@@@@XXX@@@@@XXX@@@@@XXX@@@@@XXX@@@@@XXX@@@@@XXX@@@@@XXX@@@@@XXX@@@@@XXX@@@@@XXX@@@@@XXX@@@@@XXX@@@@@@@@+o.",
".++@X######X#######X#######X#######X#######X#######X#######X#######X#######X#######X#######X#######X######+X@+o.",
".++@X######@#######@#######@#######@#######@#######@#######@#######@#######@#######@#######@#######@######+X@+o.",
".++@X######@#######@#######@#######@#######@#######@#######@#######@#######@#######@#######@#######@######+X@+o.",
".++@X######@#######@#######@#######@#######@#######@#######@#######@#######@#######@#######@#######@######+X@+o.",
".++@X######@#######@#######@#######@#######@#######@#######@#######@#######@#######@#######@#######@######+X@+o.",
".++@X######@#######@#######@#######@#######@#######@#######@#######@#######@#######@#######@#######@######+X@+o.",
".++@X######X#######X#######X#######X#######X#######X#######X#######X#######X#######X#######X#######X######+X@+o.",
".++@X@@@@@XXX@@@@@XXX@@@@@XXX@@@@@XXX@@@@@XXX@@@@@XXX@@@@@XXX@@@@@XXX@@@@@XXX@@@@@XXX@@@@@XXX@@@@@XXX@@@@@@@@+o.",
".++@X######X#######X#######X#######X#######X#######X#######X#######X#######X#######X#######X#######X######+X@+o.",
".++@X######@#######@#######@#######@#######@#######@#######@#######@#######@#######@#######@#######@######+X@+o.",
".++@X######@#######@#######@#######@#######@#######@#######@#######@#######@#######@#######@#######@######+X@+o.",
".++@X######@#######@#######@#######@#######@#######@#######@#######@#######@#######@#######@#######@######+X@+o.",
".++@X######@#######@#######@#######@#######@#######@#######@#######@#######@#######@#######@#######@######+X@+o.",
".++@X######@#######@#######@#######@#######@#######@#######@#######@#######@#######@#######@#######@######+X@+o.",
".++@X######X#######X#######X#######X#######X#######X#######X#######X#######X#######X#######X#######X######+X@+o.",
".++@X@@@@@XXX@@@@@XXX@@@@@XXX@@@@@XXX@@@@@XXX@@@@@XXX@@@@@XXX@@@@@XXX@@@@@XXX@@@@@XXX@@@@@XXX@@@@@XXX@@@@@@@@+o.",
".++@X######X#######X#######X#######X#######X#######X#######X#######X#######X#######X#######X#######X######+X@+o.",
".++@X######@#######@#######@#######@#######@#######@#######@#######@#######@#######@#######@#######@######+X@+o.",
".++@X######@#######@#######@#######@#######@#######@#######@#######@#######@#######@#######@#######@######+X@+o.",
".+++@@@@@@@@@@@@@@@@@@@@@@@@@@@@@@@@@@@@@@@@@@@@@@@@@@@@@@@@@@@@@@@@@@@@@@@@@@@@@@@@@@@@@@@@@@@@@@@@@@@@@@@@++o.",
".+++++++++++++++++++++++++++++++++++++++++++++++++++++++++++++++++++++++++++++++++++++++++++++++++++++++++++++o.",
".X+++++++++++++++++++++++++++++++++++++++++++++++++++++++++++++++++++++++++++++++++++++++++++++++++++++++++++++.",
".XXXXXXXXXXXXXXXXXXXXXXXXXXXXXXXXXXXXXXXXXXXXXXXXXXXXXXXXXXXXXXXXXXXXXXXXXXXXXXXXXXXXXXXXXXXXXXXXXXXXXXXXXXXXX+.",
".XXXXXXXXXXXXXXXXXXXXXXXXXXXXXXXXXXXXXXXXXXXXXXXXXXXXXXXXXXXXXXXXXXXXXXXXXXXXXXXXXXXXXXXXXXXXXXXXXXXXXXXXXXXXX+.",
".XXXXXXXXXXXXXXXXXXXXXXXXXXXXXXXXXXXXXXXXXXXXXXXXXXXXXXXXXXXXXXXXXXXXXXXXXXXXXXXXXXXXXXXXXXXXXXXXXXXXXXXXXXXXX+.",
".XXXXXXXXXXXXXXXXXXXXXXXXXXXXXXXXXXXXXXXXXXXXXXXXXXXXXXXXXXXXXXXXXXXXXXXXXXXXXXXXXXXXXXXXXXXXXXXXXXXXXXXXXXXXX+.",
"X..............................................................................................................X",
"X.XXXXXXXXXXXXXXXXXXXXXXXXXXXXXXXXXXXXXXXXXXXXXXXXXXXXXXXXXXXXXXXXXXXXXXXXXXXXXXXXXXXXXXXXXXXXXXXXXXXXXXXXXXXX.X",
"X.X+++++++++++++++++++++++++++++++++++++++++++++++++++++++++++++++++++++++++++++++++++++++++++++++++++++++++++.X",
"X.X$$$%%&%%%%%%&%%%%%%&%%%%%%&%%%%%%&%%%%%%&%%%%%&%%%%%%&%%%%%%&%%%%%%&%%%%%%&%%%%%%%%&%%%%%%&%%%%%%&%%%%%%&%&.X",
"X.X$%&&&&&&&&&&&&&&&&&&&&&&&&&&&&&&&&&&&&&&&&&&&&&&&&&&&&&&&&&&&&&&&&&&&&&&&&&&&&&&&&&&&&&&&&&&&&&&&&&&&&&&&&O.X",
"X.X$%&******&******&******&******&******&************&******&******&******&******&********&******&******&****O.X",
"X.X$$$******&******&******&******&******&************&******&******&******&******&********&******&******&****O.X",
"X.X$$$******&******&******&******&******&************&******&******&******&******&********&******&******&****O.X",
"X.X$%&&&&&&&&&&&&&&&&&&&&&&&&&&&&&&&&&&&&&&&&&&&&&&&&&&&&&&&&&&&&&&&&&&&&&&&&&&&&&&&&&&&&&&&&&&&&&&&&&&&&&&&&O.X",
"X.X$%&%%&%%%%%%&%%%%%%&%%%%%%&%%%%%%&%%%%%%&%%%%%&%%%%%%&%%%%%%&%%%%%%&%%%%%%&%%%%%%%%&%%%%%%&%%%%%%&%%%%%%&%O.X",
"X.X$$$%%&%%%%%%&%%%%%%&%%%%%%&%%%%%%&%%%%%%&%%%%%&%%%%%%&%%%%%%&%%%%%%&%%%%%%&%%%%%%%%&%%%%%%&%%%%%%&%%%%%%&%O.X",
"X.X$$$%%&%%%%%%&%%%%%%&%%%%%%&%%%%%%&%%%%%%&%%%%%&%%%%%%&%%%%%%&%%%%%%&%%%%%%&%%%%%%%%&%%%%%%&%%%%%%&%%%%%%&%O.X",
"X.X$%&&&&&&&&&&&&&&&&&&&&&&&&&&&&&&&&&&&&&&&&&&&&&&&&&&&&&&&&&&&&&&&&&&&&&&&&&&&&&&&&&&&&&&&&&&&&&&&&&&&&&&&&O.X",
"X.X$%&******&******&******&******&******&************&******&******&******&******&********&******&******&****O.X",
"X.X$$$******&******&******&******&******&************&******&******&******&******&********&******&******&****O.X",
"X.X$$$******&******&******&******&******&************&******&******&******&******&********&******&******&****O.X",
"X.X$%&&&&&&&&&&&&&&&&&&&&&&&&&&&&&&&&&&&&&&&&&&&&&&&&&&&&&&&&&&&&&&&&&&&&&&&&&&&&&&&&&&&&&&&&&&&&&&&&&&&&&&&&O.X",
"X.X$%&%%&%%%%%%&%%%%%%&%%%%%%&%%%%%%&%%%%%%&%%%%%&%%%%%%&%%%%%%&%%%%%%&%%%%%%&%%%%%%%%&%%%%%%&%%%%%%&%%%%%%&%O.X",
"X.X$$$%%&%%%%%%&%%%%%%&%%%%%%&%%%%%%&%%%%%%&%%%%%&%%%%%%&%%%%%%&%%%%%%&%%%%%%&%%%%%%%%&%%%%%%&%%%%%%&%%%%%%&%O.X",
"X.X$$$%%&%%%%%%&%%%%%%&%%%%%%&%%%%%%&%%%%%%&%%%%%&%%%%%%&%%%%%%&%%%%%%&%%%%%%&%%%%%%%%&%%%%%%&%%%%%%&%%%%%%&%O.X",
"X.X$%&&&&&&&&&&&&&&&&&&&&&&&&&&&&&&&&&&&&&&&&&&&&&&&&&&&&&&&&&&&&&&&&&&&&&&&&&&&&&&&&&&&&&&&&&&&&&&&&&&&&&&&&O.X",
"X.X$%&******&******&******&******&******&************&******&******&******&******&********&******&******&****O.X",
"X.X$$$******&******&******&******&******&************&******&******&******&******&********&******&******&****O.X",
"X.X$$$******&******&******&******&******&************&******&******&******&******&********&******&******&****O.X",
"X.X$%&&&&&&&&&&&&&&&&&&&&&&&&&&&&&&&&&&&&&&&&&&&&&&&&&&&&&&&&&&&&&&&&&&&&&&&&&&&&&&&&&&&&&&&&&&&&&&&&&&&&&&&&O.X",
"X.X$%&%%&%%%%%%&%%%%%%&%%%%%%&%%%%%%&%%%%%%&%%%%%&%%%%%%&%%%%%%&%%%%%%&%%%%%%&%%%%%%%%&%%%%%%&%%%%%%&%%%%%%&%O.X",
"X.X$$$%%&%%%%%%&%%%%%%&%%%%%%&%%%%%%&%%%%%%&%%%%%&%%%%%%&%%%%%%&%%%%%%&%%%%%%&%%%%%%%%&%%%%%%&%%%%%%&%%%%%%&%O.X",
"X.X$$$%%&%%%%%%&%%%%%%&%%%%%%&%%%%%%&%%%%%%&%%%%%&%%%%%%&%%%%%%&%%%%%%&%%%%%%&%%%%%%%%&%%%%%%&%%%%%%&%%%%%%&%O.X",
"X.X##########################################################################################################O.X",
"X.X##########################################################################################################O.X",
"X.X##########################################################################################################O.X",
"XX............................................................................................................XX"
};
