/* XPM */
static char *_a0dd532d44640b2e16ff37c31d019f1snZaDN7EtO2PFpmS[] = {
/* columns rows colors chars-per-pixel */
"112 71 22 1 ",
"  c black",
". c #404769",
"X c #787880",
"o c #D8E0F1",
"O c #F0F0F8",
"+ c #97A8B9",
"@ c #585771",
"# c #C9878F",
"$ c #A15767",
"% c #893F4F",
"& c #B8C0D9",
"* c #F0E9BE",
"= c #D1B962",
"- c #E0D98C",
"; c #C19141",
": c #D9C973",
"> c #3475DB",
", c #5D96EB",
"< c #96C7F2",
"1 c #B9787F",
"2 c #10A95D",
"3 c #4AC98E",
/* pixels */
" .............................................................................................................. ",
".XooooooooooooooooooooooooooooooooooooooooooooooooooooooooooooooooooooooooooooooOOOOOOOOOOOOOOOOOOOOOOOOooooooX.",
".o++++++++++++++++++++++++++++++++++++++++++++++++++++++++++++++++++++++++++++++++++..............+++++++++++++.",
".o++@@@@@@@@@@@@@@@@@@@@@@@@@@@@@@@@@@@@@@@@@@@@@@@@@@@@@@@@@@@@@@@@@@@@@@@@@@@@@@@.#############$.@@@@@@@@@+++.",
".o+@@@@@@@@@@@@@@@@@@@@@@@@@@@@@@@@@@@@@@@@@@@@@@@@@@@@@@@@@@@@@@@@@@@@@@@@@@@@@@@@.#############$.@@@@@@@@@@++.",
".o+@@@@@@@@@@@@@@@@@@@@@@@@@@@@@@@@@@@@@@@@@@@@@@@@@@@@@@@@@@@@@@@@@@@@@@@@@@@@@@@@.##%%%%%%%%%%#$.@@@@@@@@@@++.",
".o+@@@@@@@@@@@@@@@@@@@@@@@@@@@@@@@@@@@@@@@@@@@@@@@@@@@@@@@@@@@@@@@@@@@@@@@@@@@@@@@@.##%%%%%%%%%%#$.@@@@@@@@@@++.",
".o+@XXXXXXXX@XXXXXXX@XXXXXXX@XXXXXXX@XXXXXXX@XXXXXXX@XXXXXXX@XXXXXXX@XXXXXXX@XXX....##%%%%%%%%%%#$....XXXXXX@++.",
".o+@X+++++++@+++++++@+++++++@+++++++@+++++++@+++++++@+++++++@+++++++@+++++++@+++.##.##%%%%%%%%%%#$.##.XX+++X@++.",
".o+@X+&&&&&&@&&&&&&&@&&&&&&&@&&&&&&&@&&&&&&&@&&&&&&&@&&&&&&&@&&&&&&&@&&&&&&&@&&&.$#.##..........#$.#$.XX&&&X@++.",
".o+@X+&&&&&&@&&&&&&&@&&&&&&&@&&&&&&&@&&&&&&&@&&&&&&&@&&&&&&&@&&&&&&&@&&&&&&&@&&&.$$.##..........#$.$$.XX&&&X@++.",
".o+@X+&&&&&&X&&&&&&&X&&&&&&&X&&&&&&&X&&&&&&&X&&&&&&&X&&&&&&&X&&&&&&&X&&&&&&&X&&&.$$.##..........#$.$$.XX&&&X@++.",
".o+@@@@@@@@XXX@@@@@XXX@@@@@XXX@@@@@XXX@@@@@XXX@@@@@XXX@@@@@XXX@@@@@XXX@@@@@XXX@@.$$.##..........#$.$$.XX@@@X@++.",
".o+@X+&&&&&&X&&&&&&&X&&&&&&&X&&&&&&&X&&&&&&&X&&&&&&&X&&&&&&&X&&&&&&&X&&&&&&&X&&&.$$.##..........#$.$$.XX&&&X@++.",
".o+@X+&&&&&&@&&&&&&&@&&&&&&&@&&&&&&&@&&&&&&&@&&&&&&&@&&&&&&&@&&&&&&&@&&&&&&&@&&&.$$.##..........#$.$$.XX&&&X@++.",
".o+@X+&&&&&&@&&&&&&&@&&&&&&&@&&&&&&&@&&&&&&&@&&&&&&&@&&&&&&&@&&&&&&&@&&&&&&&@&&&.$$.#############$.$$.XX&&&X@++.",
".o+@X+&&&&&&@&&&&&&&@&&&&&&&@&&&&&&&@&&&&&&&@&&&&&&&@&&&&&&&@&&&&&&&@&&&&&&&@&&&.$$.#############$.$$.XX&&&X@++.",
".o+@X+&&&&&&@&&&&&&&@&&&&&&&@&&&&&&&@&&&&&&&@&&&&&&&@&&&&&&&@&&&&&&&@&&&&&&&@&&&.$$.%%%%%%%%%%%%%%.$$.XX&&&X@++.",
".o+@X+&&&&&&@&&&&&&&@&&&&&&&@&&&&&&&@&&&&&&&@&&&&&&&@&&&&&&&@&&&&&&&@&&&&&&&@&&&.$$.%%%%%%%%%%%%%%.$$.XX&&&X@++.",
".o+@X+&&&&&&X&&&&&&&X&&&&&&&X&&&&&&&X&&&&&&&X&&&&&&&X&&&&&&&X&&&&&&&X&&&&&&&X&&&.$$.%%%%%%%%%%%%%%.$$.XX&&&X@++.",
".o+@@@@@@@@XXX@@@@@XXX@@@@@XXX@@@@@XXX@@@@@XXX@@@@@XXX@@@@@XXX@@@@@XXX@@@@@XXX@@.$$.%%%%%%%%%%%%%%.$$.XX@@@X@++.",
".o+@X+&&&&&&X&&&&&&&X&&&&&&&X&&&&&&&X&&&&&&&X&&&&&&&X&&&&&&&X&&&&&&&X&&&&&&&X&&&.$$.%%%%%%%%%%%%%%.$$.XX&&&X@++.",
".o+@X+&&&&&&@&&&&&&&@&&&&&&&@&&&&&&&@&&&&&&&@&&&&&&&@&&&&&&&@&&&&&&&@&&&&&&&@&&&.$$.%%%%%%%%%%%%%%.$$.XX&&&X@++.",
".o+@X+&&&&&&@&&&&&&&@&&&&&&&@&&&&&&&@&&&&&&&@&&&&&&&@&&&&&&&@&&&&&&&@&&&&&&&@&&&.$$................$$.XX&&&X@++.",
".o+@X+&&&&&&@&&&&&&&@&&&&&&&@&&&&&&&@&&&&&&&@&&&&&&&@&&&&&&&@&&&&&&&@&&&&&&&@&&&.$$.%%%%%%%%%%%%%%.$$.XX&&&X@++.",
".o+@X+&&&&&&@&&&&&&&@&&&&&&&@&&&&&&&@&&&&&&&@&&&&&&&@&&&&&&&@&&&&&&&@&&&&&&&@&&&.$.%%%%%%%%%%%%%%%%.$.XX&&&X@++.",
".o+@X+&&&&&&@&&&&&&&@&&&&&&&@&&&&&&&@&&&&&&&@&&&&&&&@&&&&&&&@&&&&&&&@&&&&&&&@&&&.$.%%%%%%%%%%%%%%%%.$.XX&&&X@++.",
".o+@X+&&&&&&X&&&&&&&X&&&&&&&X&&&&&&&X&&&&&&&X&&&&&&&X&&&&&&&X&&&&&&&X&&&&&&&X&&&..%%%%%%%%%%%%%%%%%%..XX&&&X@++.",
".o+@@@@@@@@XXX@@@@@XXX@@@@@XXX@@@@@XXX@@@@@XXX@@@@@XXX@@@@@XXX@@@@@XXX@@@@@XXX@@......................XX@@@X@++.",
".o+@X+&&&&&&X&&&&&&&X&&&&&&&X&&&&&&&X&&&&&&&X&&&&&&&X&&&&&&&X&&&&&&&X&&&&&&&X&&&XXXXXXXXXXXXXXXXXXXXXXXX&&&X@++.",
".o+@X+&&&&&&@&&&&&&&@&&&&&&&@&&&&&&&@&&&&&&&@&&&&&&&@&&&&&&&@&&&&&&&@&&&&&&&@&&&&XXXXXXXXXXXXXXXXXXXXXXX&&&X@++.",
".o+@X+&&&&&&@&&&&&&&@&&&&&&&@&&&&&&&@&&&&&&&@&&&&&&&@&&&&&&&@&&&&&&&@&&&&&&&@&&&&&&&@&&&&&&&@&&&&&&&@&&&&&&X@++.",
".o++@@@@@@@@@@@@@@@@@@@@@@@@@@@@@@@@@@@@@@@@@@@@@@@@@@@@@@@@@@@@@@@@@@@@@@@@@@@@@@@@@@@@@@@@@@@@@@@@@@@@@@@@+++.",
".o+++++++++++++++++++++++++++++++++++++++++++++++++++++++++++++++++++++++++++++++++++++++++++++++++++++++++++++.",
".+++++++++++++++++++++++++++++++++++++++++++++++++++++++++++++++++++++++++++++++++++++++++++++++++++++++++++++X.",
".+XXXXXXXXXXXXXXXXXXXXXXXXXXXXXXXXXXXXXXXXXXXXXXXXXXXXXXXXXXXXXXXXXXXXXXXXXXXXXXXXXXXXXXXXXXXXXXXXXXXXXXXXXXXXX.",
".+XXXXXXXXXXXXXXXXXXXXXXXXXXXXXXXXXXXXXXXXXXXXXXXXXXXXXXXXXXXXXXXXXXXXXXXXXXXXXXXXXXXXXXXXXXXXXXXXXXXXXXXXXXXXX.",
".+XXXXXXXXXXXXXXXXXXXXXXXXXXXXXXXXXXXXXXXXXXXXXXXXXXXXXXXXXXXXXXXXXXXXXXXXXXXXXXXXXXXXXXXXXXXXXXXXXXXXXXXXXXXXX.",
".+XXXXXXXXXXXXXXXXXXXXXXXXXXXXXXXXXXXXXXXXXXXXXXXXXXXXXXXXXXXXXXXXXXXXXXXXXXXXXXXXXXXXXXXXXXXXXXXXXXXXXXXXXXXXX.",
"X..............................................................................................................X",
"X.XXXXXXXXXXXXXXXXXXXXXXXXXXXXXXXXXXXXXXXXXXXXXXXXXXXXXXXXXXXXXXXXXXXXXXXXXXXXXXXXXXXXXXXXXXXXXXXXXXXXXXXXXXXX.X",
"X.+++++++++++++++++++++++++++++++++++++++++++++++++++++++++++++++++++++++++++++++++++++++++++++++++++++++++++X.X",
"X.*===*-----;-OOOO-;--------;-OOOO-;-------*--------*-------*-------*-------;-OOOO-;--------;-OOOO-;-----*===X.X",
"X.O--******;OOX..XOO;******;OOX..XOO;**************************************;OOX..XOO;******;OOX..XOO;******-=X.X",
"X.O--****:=-O.>>>>.O-=:**:=-O.>>>>.O-=:**::::::**::::::**::::::**::::::**:=-O.>>>>.O-=:**:=-O.>>>>.O-=:****-=X.X",
"X.O===***:;OX,,,,,,XO;:**:;OX,,,,,,XO;:**::::::**::::::**::::::**::::::**:;OX,,,,,,XO;:**:;OX,,,,,,XO;:***===X.X",
"X.O===***:;O.,,,,,,.O;:**:;O.,,,,,,.O;:**::::::**::::::**::::::**::::::**:;O.,,,,,,.O;:**:;O.,,,,,,.O;:***===X.X",
"X.O--*****;O.<<<<<<.O;****;O.<<<<<<.O;************************************;O.<<<<<<.O;****;O.<<<<<<.O;*****-=X.X",
"X.O--**---;OX;<<<<;XO;----;OX;<<<<;XO;-----*--------*-------*-------*-----;OX;<<<<;XO;----;OX;<<<<;XO;---**-=X.X",
"X.O===*---=-O.;;;;.O-=----=-O.;;;;.O-=-----*--------*-------*-------*-----=-O.;;;;.O-=----=-O.;;;;.O-=---*===X.X",
"X.O===*----;OOX..XOO;------;OOX..XOO;------*--------*-------*-------*------;OOX..XOO;------;OOX..XOO;----*===X.X",
"X.O--*******;-OOOO-;********;-OOOO-;****************************************;-OOOO-;********;-OOOO-;*******-=X.X",
"X.O--****::::=;;;;=::::**::::=;;;;=::::**::::::**::::::**::::::**::::::**::::=;;;;=::::**::::=;;;;=::::****-=X.X",
"X.O===***::::::**::::::**::::::**::::::**::::::**::::::**::::::**::::::**::::::**::::::**::::::**::::::***===X.X",
"X.O===***::::::*........................*::::::**::::::**::::::**::::::*........................*::::::***===X.X",
"X.O--***********.1$111111111111111111$1.********................********.1$111111111111111111$1.***********-=X.X",
"X.O--**-----*---.1$111111111111111111$1.---*----.XXXXXXXXXXXXXX.----*---.1$111111111111111111$1.----*----**-=X.X",
"X.O===*-----*---.$$$$$$$$$$$$$$$$$$$$$$.---*----.XXXX@@@@@@XXXX.----*---.$$$$$$$$$$$$$$$$$$$$$$.----*----*===X.X",
"X.O===*-----*---........................---*----.233@,,,,,,@333.----*---........................----*----*===X.X",
"X.O--************.>>>>>>>>>..>>>>>>>>>.*********.23@,,,,,,,,@33.*********.>>>>>>>>>..>>>>>>>>>.************-=X.X",
"X.O--****::::::**.,,,,,,,,,..,,,,,,,,,.**::::::*.23@,,,,,,,,@33.*::::::**.,,,,,,,,,..,,,,,,,,,.**::::::****-=X.X",
"X.O===***::::::**.,,,,,,,,,..,,,,,,,,,.**::::::*.23@,,,,,,,,@33.*::::::**.,,,,,,,,,..,,,,,,,,,.**::::::***===X.X",
"X.O===***::::::**.<<<<<<<<<..<<<<<<<<<.**::::::*.23@<<<<<<<<@33.*::::::**.<<<<<<<<<..<<<<<<<<<.**::::::***===X.X",
"X.O--************.<<<<<<<<<..<<<<<<<<<.*********.233@<<<<<<@333.*********.<<<<<<<<<..<<<<<<<<<.************-=X.X",
"X.O--**-----*----.;;;;;;;;;..;;;;;;;;;.----*----.@@33@@@@@@3333.----*----.;;;;;;;;;..;;;;;;;;;.-----*----**-=X.X",
"X.O===*-----*----......................----*----.O&@33333333333.----*----......................-----*----*===X.X",
"X.O===*-----*----OOOOOOOOOOOOOOOOOOOOOO----*----.&&@22222222222.----*----OOOOOOOOOOOOOOOOOOOOOO-----*----*===X.X",
"X.O&&&&&&&&&&&&&&&&&&&&&&&&&&&&&&&&&&&&&&&&&&&&&.@@222222222222.&&&&&&&&&&&&&&&&&&&&&&&&&&&&&&&&&&&&&&&&&&&&&X.X",
"X.O&&&&&&&&&&&&&&&&&&&&&&&&&&&&&&&&&&&&&&&&&&&&&.22222222222222.&&&&&&&&&&&&&&&&&&&&&&&&&&&&&&&&&&&&&&&&&&&&&X.X",
"X.O&&&&&&&&&&&&&&&&&&&&&&&&&&&&&&&&&&&&&&&&&&&&&................&&&&&&&&&&&&&&&&&&&&&&&&&&&&&&&&&&&&&&&&&&&&&X.X",
"XX...............................................XXXXXXXXXXXXXX...............................................XX"
};
