/* XPM */
static char *_e7e814d6a844b2284973e4d2f91ce83BZGrKzOAI1fBmRlK[] = {
/* columns rows colors chars-per-pixel */
"56 71 22 1 ",
"  c #404769",
". c black",
"X c #D8E0F1",
"o c #F0F0F8",
"O c #787880",
"+ c #97A8B9",
"@ c #585771",
"# c #C9878F",
"$ c #A15767",
"% c #893F4F",
"& c #B8C0D9",
"* c #E0D98C",
"= c #F0E9BE",
"- c #C19141",
"; c #D1B962",
": c #D9C973",
"> c #3475DB",
", c #5D96EB",
"< c #96C7F2",
"1 c #B9787F",
"2 c #4AC98E",
"3 c #10A95D",
/* pixels */
"                                                       .",
"XXXXXXXXXXXXXXXXXXXXXXXXooooooooooooooooooooooooXXXXXXO ",
"++++++++++++++++++++++++++++              +++++++++++++ ",
"@@@@@@@@@@@@@@@@@@@@@@@@@@@ #############$ @@@@@@@@@+++ ",
"@@@@@@@@@@@@@@@@@@@@@@@@@@@ #############$ @@@@@@@@@@++ ",
"@@@@@@@@@@@@@@@@@@@@@@@@@@@ ##%%%%%%%%%%#$ @@@@@@@@@@++ ",
"@@@@@@@@@@@@@@@@@@@@@@@@@@@ ##%%%%%%%%%%#$ @@@@@@@@@@++ ",
"OOOO@OOOOOOO@OOOOOOO@OOO    ##%%%%%%%%%%#$    OOOOOO@++ ",
"++++@+++++++@+++++++@+++ ## ##%%%%%%%%%%#$ ## OO+++O@++ ",
"&&&&@&&&&&&&@&&&&&&&@&&& $# ##          #$ #$ OO&&&O@++ ",
"&&&&@&&&&&&&@&&&&&&&@&&& $$ ##          #$ $$ OO&&&O@++ ",
"&&&&O&&&&&&&O&&&&&&&O&&& $$ ##          #$ $$ OO&&&O@++ ",
"@@@OOO@@@@@OOO@@@@@OOO@@ $$ ##          #$ $$ OO@@@O@++ ",
"&&&&O&&&&&&&O&&&&&&&O&&& $$ ##          #$ $$ OO&&&O@++ ",
"&&&&@&&&&&&&@&&&&&&&@&&& $$ ##          #$ $$ OO&&&O@++ ",
"&&&&@&&&&&&&@&&&&&&&@&&& $$ #############$ $$ OO&&&O@++ ",
"&&&&@&&&&&&&@&&&&&&&@&&& $$ #############$ $$ OO&&&O@++ ",
"&&&&@&&&&&&&@&&&&&&&@&&& $$ %%%%%%%%%%%%%% $$ OO&&&O@++ ",
"&&&&@&&&&&&&@&&&&&&&@&&& $$ %%%%%%%%%%%%%% $$ OO&&&O@++ ",
"&&&&O&&&&&&&O&&&&&&&O&&& $$ %%%%%%%%%%%%%% $$ OO&&&O@++ ",
"@@@OOO@@@@@OOO@@@@@OOO@@ $$ %%%%%%%%%%%%%% $$ OO@@@O@++ ",
"&&&&O&&&&&&&O&&&&&&&O&&& $$ %%%%%%%%%%%%%% $$ OO&&&O@++ ",
"&&&&@&&&&&&&@&&&&&&&@&&& $$ %%%%%%%%%%%%%% $$ OO&&&O@++ ",
"&&&&@&&&&&&&@&&&&&&&@&&& $$                $$ OO&&&O@++ ",
"&&&&@&&&&&&&@&&&&&&&@&&& $$ %%%%%%%%%%%%%% $$ OO&&&O@++ ",
"&&&&@&&&&&&&@&&&&&&&@&&& $ %%%%%%%%%%%%%%%% $ OO&&&O@++ ",
"&&&&@&&&&&&&@&&&&&&&@&&& $ %%%%%%%%%%%%%%%% $ OO&&&O@++ ",
"&&&&O&&&&&&&O&&&&&&&O&&&  %%%%%%%%%%%%%%%%%%  OO&&&O@++ ",
"@@@OOO@@@@@OOO@@@@@OOO@@                      OO@@@O@++ ",
"&&&&O&&&&&&&O&&&&&&&O&&&OOOOOOOOOOOOOOOOOOOOOOOO&&&O@++ ",
"&&&&@&&&&&&&@&&&&&&&@&&&&OOOOOOOOOOOOOOOOOOOOOOO&&&O@++ ",
"&&&&@&&&&&&&@&&&&&&&@&&&&&&&@&&&&&&&@&&&&&&&@&&&&&&O@++ ",
"@@@@@@@@@@@@@@@@@@@@@@@@@@@@@@@@@@@@@@@@@@@@@@@@@@@@+++ ",
"+++++++++++++++++++++++++++++++++++++++++++++++++++++++ ",
"++++++++++++++++++++++++++++++++++++++++++++++++++++++O ",
"OOOOOOOOOOOOOOOOOOOOOOOOOOOOOOOOOOOOOOOOOOOOOOOOOOOOOOO ",
"OOOOOOOOOOOOOOOOOOOOOOOOOOOOOOOOOOOOOOOOOOOOOOOOOOOOOOO ",
"OOOOOOOOOOOOOOOOOOOOOOOOOOOOOOOOOOOOOOOOOOOOOOOOOOOOOOO ",
"OOOOOOOOOOOOOOOOOOOOOOOOOOOOOOOOOOOOOOOOOOOOOOOOOOOOOOO ",
"                                                       O",
"OOOOOOOOOOOOOOOOOOOOOOOOOOOOOOOOOOOOOOOOOOOOOOOOOOOOOO O",
"+++++++++++++++++++++++++++++++++++++++++++++++++++++O O",
"****=*******=*******-*oooo*-********-*oooo*-*****=;;;O O",
"===================-ooO  Ooo-======-ooO  Ooo-======*;O O",
"=::::::==::::::==:;*o >>>> o*;:==:;*o >>>> o*;:====*;O O",
"=::::::==::::::==:-oO,,,,,,Oo-:==:-oO,,,,,,Oo-:===;;;O O",
"=::::::==::::::==:-o ,,,,,, o-:==:-o ,,,,,, o-:===;;;O O",
"==================-o <<<<<< o-====-o <<<<<< o-=====*;O O",
"****=*******=*****-oO-<<<<-Oo-****-oO-<<<<-Oo-***==*;O O",
"****=*******=*****;*o ---- o*;****;*o ---- o*;***=;;;O O",
"****=*******=******-ooO  Ooo-******-ooO  Ooo-****=;;;O O",
"====================-*oooo*-========-*oooo*-=======*;O O",
"=::::::==::::::==::::;----;::::==::::;----;::::====*;O O",
"=::::::==::::::==::::::==::::::==::::::==::::::===;;;O O",
"=::::::==::::::=                        =::::::===;;;O O",
"        ======== 1$111111111111111111$1 ===========*;O O",
"OOOOOOO ****=*** 1$111111111111111111$1 ****=****==*;O O",
"@@@OOOO ****=*** $$$$$$$$$$$$$$$$$$$$$$ ****=****=;;;O O",
",,,@222 ****=***                        ****=****=;;;O O",
",,,,@22 ========= >>>>>>>>>  >>>>>>>>> ============*;O O",
",,,,@22 =::::::== ,,,,,,,,,  ,,,,,,,,, ==::::::====*;O O",
",,,,@22 =::::::== ,,,,,,,,,  ,,,,,,,,, ==::::::===;;;O O",
"<<<<@22 =::::::== <<<<<<<<<  <<<<<<<<< ==::::::===;;;O O",
"<<<@222 ========= <<<<<<<<<  <<<<<<<<< ============*;O O",
"@@@2222 ****=**** ---------  --------- *****=****==*;O O",
"2222222 ****=****                      *****=****=;;;O O",
"3333333 ****=****oooooooooooooooooooooo*****=****=;;;O O",
"3333333 &&&&&&&&&&&&&&&&&&&&&&&&&&&&&&&&&&&&&&&&&&&&&O O",
"3333333 &&&&&&&&&&&&&&&&&&&&&&&&&&&&&&&&&&&&&&&&&&&&&O O",
"        &&&&&&&&&&&&&&&&&&&&&&&&&&&&&&&&&&&&&&&&&&&&&O O",
"OOOOOOO                                               OO"
};
