/* XPM */
static char *_b31bb2920d44f47feae21bfa765eebdVZj0n90IgVzhxJg7[] = {
/* columns rows colors chars-per-pixel */
"56 71 11 1 ",
"  c #404769",
". c black",
"X c #D8E0F1",
"o c #787880",
"O c #97A8B9",
"+ c #585771",
"@ c #B8C0D9",
"# c #F0E9BE",
"$ c #E0D98C",
"% c #F0F0F8",
"& c #D9C973",
/* pixels */
"                                                       .",
"XXXXXXXXXXXXXXXXXXXXXXXXXXXXXXXXXXXXXXXXXXXXXXXXXXXXXXo ",
"OOOOOOOOOOOOOOOOOOOOOOOOOOOOOOOOOOOOOOOOOOOOOOOOOOOOOOX ",
"++++++++++++++++++++++++++++++++++++++++++++++++++++OOX ",
"+++++++++++++++++++++++++++++++++++++++++++++++++++++OX ",
"+++++++++++++++++++++++++++++++++++++++++++++++++++++OX ",
"+++++++++++++++++++++++++++++++++++++++++++++++++++++OX ",
"ooo+ooooooo+ooooooo+ooooooo+ooooooo+ooooooo+oooooooo+OX ",
"OOO+OOOOOOO+OOOOOOO+OOOOOOO+OOOOOOO+OOOOOOO+OOOOOOOo+OX ",
"@@@+@@@@@@@+@@@@@@@+@@@@@@@+@@@@@@@+@@@@@@@+@@@@@@Oo+OX ",
"@@@+@@@@@@@+@@@@@@@+@@@@@@@+@@@@@@@+@@@@@@@+@@@@@@Oo+OX ",
"@@@o@@@@@@@o@@@@@@@o@@@@@@@o@@@@@@@o@@@@@@@o@@@@@@Oo+OX ",
"++ooo+++++ooo+++++ooo+++++ooo+++++ooo+++++ooo++++++++OX ",
"@@@o@@@@@@@o@@@@@@@o@@@@@@@o@@@@@@@o@@@@@@@o@@@@@@Oo+OX ",
"@@@+@@@@@@@+@@@@@@@+@@@@@@@+@@@@@@@+@@@@@@@+@@@@@@Oo+OX ",
"@@@+@@@@@@@+@@@@@@@+@@@@@@@+@@@@@@@+@@@@@@@+@@@@@@Oo+OX ",
"@@@+@@@@@@@+@@@@@@@+@@@@@@@+@@@@@@@+@@@@@@@+@@@@@@Oo+OX ",
"@@@+@@@@@@@+@@@@@@@+@@@@@@@+@@@@@@@+@@@@@@@+@@@@@@Oo+OX ",
"@@@+@@@@@@@+@@@@@@@+@@@@@@@+@@@@@@@+@@@@@@@+@@@@@@Oo+OX ",
"@@@o@@@@@@@o@@@@@@@o@@@@@@@o@@@@@@@o@@@@@@@o@@@@@@Oo+OX ",
"++ooo+++++ooo+++++ooo+++++ooo+++++ooo+++++ooo++++++++OX ",
"@@@o@@@@@@@o@@@@@@@o@@@@@@@o@@@@@@@o@@@@@@@o@@@@@@Oo+OX ",
"@@@+@@@@@@@+@@@@@@@+@@@@@@@+@@@@@@@+@@@@@@@+@@@@@@Oo+OX ",
"@@@+@@@@@@@+@@@@@@@+@@@@@@@+@@@@@@@+@@@@@@@+@@@@@@Oo+OX ",
"@@@+@@@@@@@+@@@@@@@+@@@@@@@+@@@@@@@+@@@@@@@+@@@@@@Oo+OX ",
"@@@+@@@@@@@+@@@@@@@+@@@@@@@+@@@@@@@+@@@@@@@+@@@@@@Oo+OX ",
"@@@+@@@@@@@+@@@@@@@+@@@@@@@+@@@@@@@+@@@@@@@+@@@@@@Oo+OX ",
"@@@o@@@@@@@o@@@@@@@o@@@@@@@o@@@@@@@o@@@@@@@o@@@@@@Oo+OX ",
"++ooo+++++ooo+++++ooo+++++ooo+++++ooo+++++ooo++++++++OX ",
"@@@o@@@@@@@o@@@@@@@o@@@@@@@o@@@@@@@o@@@@@@@o@@@@@@Oo+OX ",
"@@@+@@@@@@@+@@@@@@@+@@@@@@@+@@@@@@@+@@@@@@@+@@@@@@Oo+OX ",
"@@@+@@@@@@@+@@@@@@@+@@@@@@@+@@@@@@@+@@@@@@@+@@@@@@Oo+OX ",
"++++++++++++++++++++++++++++++++++++++++++++++++++++OOX ",
"OOOOOOOOOOOOOOOOOOOOOOOOOOOOOOOOOOOOOOOOOOOOOOOOOOOOOOX ",
"OOOOOOOOOOOOOOOOOOOOOOOOOOOOOOOOOOOOOOOOOOOOOOOOOOOOOOO ",
"ooooooooooooooooooooooooooooooooooooooooooooooooooooooO ",
"ooooooooooooooooooooooooooooooooooooooooooooooooooooooO ",
"ooooooooooooooooooooooooooooooooooooooooooooooooooooooO ",
"ooooooooooooooooooooooooooooooooooooooooooooooooooooooO ",
"                                                       o",
"oooooooooooooooooooooooooooooooooooooooooooooooooooooo o",
"OOOOOOOOOOOOOOOOOOOOOOOOOOOOOOOOOOOOOOOOOOOOOOOOOOOOOO o",
"#$$$$$$#$$$$$$#$$$$$$#$$$$$$$$#$$$$$$#$$$$$$#$$$$$$#$# o",
"#####################################################% o",
"&&&&#&&&&&&#&&&&&&#&&&&&&#&&&&&&&&#&&&&&&#&&&&&&#&&&&% o",
"&&&&#&&&&&&#&&&&&&#&&&&&&#&&&&&&&&#&&&&&&#&&&&&&#&&&&% o",
"&&&&#&&&&&&#&&&&&&#&&&&&&#&&&&&&&&#&&&&&&#&&&&&&#&&&&% o",
"#####################################################% o",
"#$$$$$$#$$$$$$#$$$$$$#$$$$$$$$#$$$$$$#$$$$$$#$$$$$$#$% o",
"#$$$$$$#$$$$$$#$$$$$$#$$$$$$$$#$$$$$$#$$$$$$#$$$$$$#$% o",
"#$$$$$$#$$$$$$#$$$$$$#$$$$$$$$#$$$$$$#$$$$$$#$$$$$$#$% o",
"#####################################################% o",
"&&&&#&&&&&&#&&&&&&#&&&&&&#&&&&&&&&#&&&&&&#&&&&&&#&&&&% o",
"&&&&#&&&&&&#&&&&&&#&&&&&&#&&&&&&&&#&&&&&&#&&&&&&#&&&&% o",
"&&&&#&&&&&&#&&&&&&#&&&&&&#&&&&&&&&#&&&&&&#&&&&&&#&&&&% o",
"#####################################################% o",
"#$$$$$$#$$$$$$#$$$$$$#$$$$$$$$#$$$$$$#$$$$$$#$$$$$$#$% o",
"#$$$$$$#$$$$$$#$$$$$$#$$$$$$$$#$$$$$$#$$$$$$#$$$$$$#$% o",
"#$$$$$$#$$$$$$#$$$$$$#$$$$$$$$#$$$$$$#$$$$$$#$$$$$$#$% o",
"#####################################################% o",
"&&&&#&&&&&&#&&&&&&#&&&&&&#&&&&&&&&#&&&&&&#&&&&&&#&&&&% o",
"&&&&#&&&&&&#&&&&&&#&&&&&&#&&&&&&&&#&&&&&&#&&&&&&#&&&&% o",
"&&&&#&&&&&&#&&&&&&#&&&&&&#&&&&&&&&#&&&&&&#&&&&&&#&&&&% o",
"#####################################################% o",
"#$$$$$$#$$$$$$#$$$$$$#$$$$$$$$#$$$$$$#$$$$$$#$$$$$$#$% o",
"#$$$$$$#$$$$$$#$$$$$$#$$$$$$$$#$$$$$$#$$$$$$#$$$$$$#$% o",
"#$$$$$$#$$$$$$#$$$$$$#$$$$$$$$#$$$$$$#$$$$$$#$$$$$$#$% o",
"@@@@@@@@@@@@@@@@@@@@@@@@@@@@@@@@@@@@@@@@@@@@@@@@@@@@@% o",
"@@@@@@@@@@@@@@@@@@@@@@@@@@@@@@@@@@@@@@@@@@@@@@@@@@@@@% o",
"@@@@@@@@@@@@@@@@@@@@@@@@@@@@@@@@@@@@@@@@@@@@@@@@@@@@@% o",
"                                                      oo"
};
