/* XPM */
static char *ca96b31ae82d47bf894db981d6c87d59ueU2gANWLiKQv3xJ[] = {
/* columns rows colors chars-per-pixel */
"56 71 20 1 ",
"  c black",
". c #404769",
"X c #787880",
"o c #D8E0F1",
"O c #97A8B9",
"+ c #585771",
"@ c #B8C0D9",
"# c #F0E9BE",
"$ c #D1B962",
"% c #E0D98C",
"& c #C19141",
"* c #F0F0F8",
"= c #D9C973",
"- c #3475DB",
"; c #5D96EB",
": c #96C7F2",
"> c #B9787F",
", c #A15767",
"< c #10A95D",
"1 c #4AC98E",
/* pixels */
" .......................................................",
".Xoooooooooooooooooooooooooooooooooooooooooooooooooooooo",
".oOOOOOOOOOOOOOOOOOOOOOOOOOOOOOOOOOOOOOOOOOOOOOOOOOOOOOO",
".oOO++++++++++++++++++++++++++++++++++++++++++++++++++++",
".oO+++++++++++++++++++++++++++++++++++++++++++++++++++++",
".oO+++++++++++++++++++++++++++++++++++++++++++++++++++++",
".oO+++++++++++++++++++++++++++++++++++++++++++++++++++++",
".oO+XXXXXXXX+XXXXXXX+XXXXXXX+XXXXXXX+XXXXXXX+XXXXXXX+XXX",
".oO+XOOOOOOO+OOOOOOO+OOOOOOO+OOOOOOO+OOOOOOO+OOOOOOO+OOO",
".oO+XO@@@@@@+@@@@@@@+@@@@@@@+@@@@@@@+@@@@@@@+@@@@@@@+@@@",
".oO+XO@@@@@@+@@@@@@@+@@@@@@@+@@@@@@@+@@@@@@@+@@@@@@@+@@@",
".oO+XO@@@@@@X@@@@@@@X@@@@@@@X@@@@@@@X@@@@@@@X@@@@@@@X@@@",
".oO++++++++XXX+++++XXX+++++XXX+++++XXX+++++XXX+++++XXX++",
".oO+XO@@@@@@X@@@@@@@X@@@@@@@X@@@@@@@X@@@@@@@X@@@@@@@X@@@",
".oO+XO@@@@@@+@@@@@@@+@@@@@@@+@@@@@@@+@@@@@@@+@@@@@@@+@@@",
".oO+XO@@@@@@+@@@@@@@+@@@@@@@+@@@@@@@+@@@@@@@+@@@@@@@+@@@",
".oO+XO@@@@@@+@@@@@@@+@@@@@@@+@@@@@@@+@@@@@@@+@@@@@@@+@@@",
".oO+XO@@@@@@+@@@@@@@+@@@@@@@+@@@@@@@+@@@@@@@+@@@@@@@+@@@",
".oO+XO@@@@@@+@@@@@@@+@@@@@@@+@@@@@@@+@@@@@@@+@@@@@@@+@@@",
".oO+XO@@@@@@X@@@@@@@X@@@@@@@X@@@@@@@X@@@@@@@X@@@@@@@X@@@",
".oO++++++++XXX+++++XXX+++++XXX+++++XXX+++++XXX+++++XXX++",
".oO+XO@@@@@@X@@@@@@@X@@@@@@@X@@@@@@@X@@@@@@@X@@@@@@@X@@@",
".oO+XO@@@@@@+@@@@@@@+@@@@@@@+@@@@@@@+@@@@@@@+@@@@@@@+@@@",
".oO+XO@@@@@@+@@@@@@@+@@@@@@@+@@@@@@@+@@@@@@@+@@@@@@@+@@@",
".oO+XO@@@@@@+@@@@@@@+@@@@@@@+@@@@@@@+@@@@@@@+@@@@@@@+@@@",
".oO+XO@@@@@@+@@@@@@@+@@@@@@@+@@@@@@@+@@@@@@@+@@@@@@@+@@@",
".oO+XO@@@@@@+@@@@@@@+@@@@@@@+@@@@@@@+@@@@@@@+@@@@@@@+@@@",
".oO+XO@@@@@@X@@@@@@@X@@@@@@@X@@@@@@@X@@@@@@@X@@@@@@@X@@@",
".oO++++++++XXX+++++XXX+++++XXX+++++XXX+++++XXX+++++XXX++",
".oO+XO@@@@@@X@@@@@@@X@@@@@@@X@@@@@@@X@@@@@@@X@@@@@@@X@@@",
".oO+XO@@@@@@+@@@@@@@+@@@@@@@+@@@@@@@+@@@@@@@+@@@@@@@+@@@",
".oO+XO@@@@@@+@@@@@@@+@@@@@@@+@@@@@@@+@@@@@@@+@@@@@@@+@@@",
".oOO++++++++++++++++++++++++++++++++++++++++++++++++++++",
".oOOOOOOOOOOOOOOOOOOOOOOOOOOOOOOOOOOOOOOOOOOOOOOOOOOOOOO",
".OOOOOOOOOOOOOOOOOOOOOOOOOOOOOOOOOOOOOOOOOOOOOOOOOOOOOOO",
".OXXXXXXXXXXXXXXXXXXXXXXXXXXXXXXXXXXXXXXXXXXXXXXXXXXXXXX",
".OXXXXXXXXXXXXXXXXXXXXXXXXXXXXXXXXXXXXXXXXXXXXXXXXXXXXXX",
".OXXXXXXXXXXXXXXXXXXXXXXXXXXXXXXXXXXXXXXXXXXXXXXXXXXXXXX",
".OXXXXXXXXXXXXXXXXXXXXXXXXXXXXXXXXXXXXXXXXXXXXXXXXXXXXXX",
"X.......................................................",
"X.XXXXXXXXXXXXXXXXXXXXXXXXXXXXXXXXXXXXXXXXXXXXXXXXXXXXXX",
"X.OOOOOOOOOOOOOOOOOOOOOOOOOOOOOOOOOOOOOOOOOOOOOOOOOOOOOO",
"X.#$$$#%%%%%&%****%&%%%%%%%%&%****%&%%%%%%%#%%%%%%%%#%%%",
"X.*%%######&**X..X**&######&**X..X**&###################",
"X.*%%####=$%*.----.*%$=##=$%*.----.*%$=##======##======#",
"X.*$$$###=&*X;;;;;;X*&=##=&*X;;;;;;X*&=##======##======#",
"X.*$$$###=&*.;;;;;;.*&=##=&*.;;;;;;.*&=##======##======#",
"X.*%%#####&*.::::::.*&####&*.::::::.*&##################",
"X.*%%##%%%&*X&::::&X*&%%%%&*X&::::&X*&%%%%%#%%%%%%%%#%%%",
"X.*$$$#%%%$%*.&&&&.*%$%%%%$%*.&&&&.*%$%%%%%#%%%%%%%%#%%%",
"X.*$$$#%%%%&**X..X**&%%%%%%&**X..X**&%%%%%%#%%%%%%%%#%%%",
"X.*%%#######&%****%&########&%****%&####################",
"X.*%%####====$&&&&$====##====$&&&&$====##======##======#",
"X.*$$$###======##======##======##======##======##======#",
"X.*$$$###======#........................#======##======#",
"X.*%%###########.>,>>>>>>>>>>>>>>>>>>,>.########........",
"X.*%%##%%%%%#%%%.>,>>>>>>>>>>>>>>>>>>,>.%%%#%%%%.XXXXXXX",
"X.*$$$#%%%%%#%%%.,,,,,,,,,,,,,,,,,,,,,,.%%%#%%%%.XXXX+++",
"X.*$$$#%%%%%#%%%........................%%%#%%%%.<11+;;;",
"X.*%%############.---------..---------.#########.<1+;;;;",
"X.*%%####======##.;;;;;;;;;..;;;;;;;;;.##======#.<1+;;;;",
"X.*$$$###======##.;;;;;;;;;..;;;;;;;;;.##======#.<1+;;;;",
"X.*$$$###======##.:::::::::..:::::::::.##======#.<1+::::",
"X.*%%############.:::::::::..:::::::::.#########.<11+:::",
"X.*%%##%%%%%#%%%%.&&&&&&&&&..&&&&&&&&&.%%%%#%%%%.++11+++",
"X.*$$$#%%%%%#%%%%......................%%%%#%%%%.*@+1111",
"X.*$$$#%%%%%#%%%%**********************%%%%#%%%%.@@+<<<<",
"X.*@@@@@@@@@@@@@@@@@@@@@@@@@@@@@@@@@@@@@@@@@@@@@.++<<<<<",
"X.*@@@@@@@@@@@@@@@@@@@@@@@@@@@@@@@@@@@@@@@@@@@@@.<<<<<<<",
"X.*@@@@@@@@@@@@@@@@@@@@@@@@@@@@@@@@@@@@@@@@@@@@@........",
"XX...............................................XXXXXXX"
};
