/* XPM */
static char *_5524036a9f142b583458c149a08353daYUVykyTxwBnz38e[] = {
/* columns rows colors chars-per-pixel */
"56 71 12 1 ",
"  c black",
". c #404769",
"X c #787880",
"o c #D8E0F1",
"O c #F0F0F8",
"+ c #97A8B9",
"@ c #585771",
"# c #B8C0D9",
"$ c #D1B962",
"% c #E0D98C",
"& c #F0E9BE",
"* c #D9C973",
/* pixels */
" .......................................................",
".XooooooOooooooooooooooooooooooooooooooooooooooooooooooo",
".+++++++++++++++++++++++++++++++++++++++++++++++++++++++",
".+++@@@@@@@@@@@@@@@@@@@@@@@@@@@@@@@@@@@@@@@@@@@@@@@@@@@@",
".++@@@@@@@@@@@@@@@@@@@@@@@@@@@@@@@@@@@@@@@@@@@@@@@@@@@@@",
".++@@@@@@@@@@@@@@@@@@@@@@@@@@@@@@@@@@@@@@@@@@@@@@@@@@@@@",
".++@@@@@@@@@@@@@@@@@@@@@@@@@@@@@@@@@@@@@@@@@@@@@@@@@@@@@",
".++@XXXXXXX@XXXXXXX@XXXXXXX@XXXXXXX@XXXXXXX@XXXXXXX@XXXX",
".++@X++++++@+++++++@+++++++@+++++++@+++++++@+++++++@++++",
".++@X######@#######@#######@#######@#######@#######@####",
".++@X######@#######@#######@#######@#######@#######@####",
".++@X######X#######X#######X#######X#######X#######X####",
".++@X@@@@@XXX@@@@@XXX@@@@@XXX@@@@@XXX@@@@@XXX@@@@@XXX@@@",
".++@X######X#######X#######X#######X#######X#######X####",
".++@X######@#######@#######@#######@#######@#######@####",
".++@X######@#######@#######@#######@#######@#######@####",
".++@X######@#######@#######@#######@#######@#######@####",
".++@X######@#######@#######@#######@#######@#######@####",
".++@X######@#######@#######@#######@#######@#######@####",
".++@X######X#######X#######X#######X#######X#######X####",
".++@X@@@@@XXX@@@@@XXX@@@@@XXX@@@@@XXX@@@@@XXX@@@@@XXX@@@",
".++@X######X#######X#######X#######X#######X#######X####",
".++@X######@#######@#######@#######@#######@#######@####",
".++@X######@#######@#######@#######@#######@#######@####",
".++@X######@#######@#######@#######@#######@#######@####",
".++@X######@#######@#######@#######@#######@#######@####",
".++@X######@#######@#######@#######@#######@#######@####",
".++@X######X#######X#######X#######X#######X#######X####",
".++@X@@@@@XXX@@@@@XXX@@@@@XXX@@@@@XXX@@@@@XXX@@@@@XXX@@@",
".++@X######X#######X#######X#######X#######X#######X####",
".++@X######@#######@#######@#######@#######@#######@####",
".++@X######@#######@#######@#######@#######@#######@####",
".+++@@@@@@@@@@@@@@@@@@@@@@@@@@@@@@@@@@@@@@@@@@@@@@@@@@@@",
".+++++++++++++++++++++++++++++++++++++++++++++++++++++++",
".X++++++++++++++++++++++++++++++++++++++++++++++++++++++",
".XXXXXXXXXXXXXXXXXXXXXXXXXXXXXXXXXXXXXXXXXXXXXXXXXXXXXXX",
".XXXXXXXXXXXXXXXXXXXXXXXXXXXXXXXXXXXXXXXXXXXXXXXXXXXXXXX",
".XXXXXXXXXXXXXXXXXXXXXXXXXXXXXXXXXXXXXXXXXXXXXXXXXXXXXXX",
".XXXXXXXXXXXXXXXXXXXXXXXXXXXXXXXXXXXXXXXXXXXXXXXXXXXXXXX",
"X.......................................................",
"X.XXXXXXXXXXXXXXXXXXXXXXXXXXXXXXXXXXXXXXXXXXXXXXXXXXXXXX",
"X.X+++++++++++++++++++++++++++++++++++++++++++++++++++++",
"X.X$$$%%&%%%%%%&%%%%%%&%%%%%%&%%%%%%&%%%%%%&%%%%%&%%%%%%",
"X.X$%&&&&&&&&&&&&&&&&&&&&&&&&&&&&&&&&&&&&&&&&&&&&&&&&&&&",
"X.X$%&******&******&******&******&******&************&**",
"X.X$$$******&******&******&******&******&************&**",
"X.X$$$******&******&******&******&******&************&**",
"X.X$%&&&&&&&&&&&&&&&&&&&&&&&&&&&&&&&&&&&&&&&&&&&&&&&&&&&",
"X.X$%&%%&%%%%%%&%%%%%%&%%%%%%&%%%%%%&%%%%%%&%%%%%&%%%%%%",
"X.X$$$%%&%%%%%%&%%%%%%&%%%%%%&%%%%%%&%%%%%%&%%%%%&%%%%%%",
"X.X$$$%%&%%%%%%&%%%%%%&%%%%%%&%%%%%%&%%%%%%&%%%%%&%%%%%%",
"X.X$%&&&&&&&&&&&&&&&&&&&&&&&&&&&&&&&&&&&&&&&&&&&&&&&&&&&",
"X.X$%&******&******&******&******&******&************&**",
"X.X$$$******&******&******&******&******&************&**",
"X.X$$$******&******&******&******&******&************&**",
"X.X$%&&&&&&&&&&&&&&&&&&&&&&&&&&&&&&&&&&&&&&&&&&&&&&&&&&&",
"X.X$%&%%&%%%%%%&%%%%%%&%%%%%%&%%%%%%&%%%%%%&%%%%%&%%%%%%",
"X.X$$$%%&%%%%%%&%%%%%%&%%%%%%&%%%%%%&%%%%%%&%%%%%&%%%%%%",
"X.X$$$%%&%%%%%%&%%%%%%&%%%%%%&%%%%%%&%%%%%%&%%%%%&%%%%%%",
"X.X$%&&&&&&&&&&&&&&&&&&&&&&&&&&&&&&&&&&&&&&&&&&&&&&&&&&&",
"X.X$%&******&******&******&******&******&************&**",
"X.X$$$******&******&******&******&******&************&**",
"X.X$$$******&******&******&******&******&************&**",
"X.X$%&&&&&&&&&&&&&&&&&&&&&&&&&&&&&&&&&&&&&&&&&&&&&&&&&&&",
"X.X$%&%%&%%%%%%&%%%%%%&%%%%%%&%%%%%%&%%%%%%&%%%%%&%%%%%%",
"X.X$$$%%&%%%%%%&%%%%%%&%%%%%%&%%%%%%&%%%%%%&%%%%%&%%%%%%",
"X.X$$$%%&%%%%%%&%%%%%%&%%%%%%&%%%%%%&%%%%%%&%%%%%&%%%%%%",
"X.X#####################################################",
"X.X#####################################################",
"X.X#####################################################",
"XX......................................................"
};
