/* XPM */
static char * tree_trees_xpm[] = {
"39 56 317 2",
"  	c #87B9E1",
". 	c #5BA873",
"+ 	c #4E894B",
"@ 	c #529155",
"# 	c #5FAD7A",
"$ 	c #569657",
"% 	c #67983A",
"& 	c #599E66",
"* 	c #47813C",
"= 	c #75AD4A",
"- 	c #B5F881",
"; 	c #A9EB76",
"> 	c #44731A",
", 	c #45A14E",
"' 	c #74C553",
") 	c #A9EF79",
"! 	c #429D32",
"~ 	c #5AB779",
"{ 	c #477B36",
"] 	c #67AB45",
"^ 	c #93DD69",
"/ 	c #AFF47D",
"( 	c #75CA54",
"_ 	c #558A34",
": 	c #428655",
"< 	c #51AD64",
"[ 	c #397E23",
"} 	c #7EC757",
"| 	c #AAF179",
"1 	c #B1F67F",
"2 	c #83D45D",
"3 	c #4B932E",
"4 	c #489836",
"5 	c #4CA95E",
"6 	c #5CA672",
"7 	c #64BA67",
"8 	c #63B64A",
"9 	c #53AC3E",
"0 	c #9AE56E",
"a 	c #5BB243",
"b 	c #5AB372",
"c 	c #3A9735",
"d 	c #3C992F",
"e 	c #A7EE78",
"f 	c #7ED259",
"g 	c #95E26A",
"h 	c #ACF27B",
"i 	c #A3EC74",
"j 	c #4CA539",
"k 	c #3A952C",
"l 	c #66BE4A",
"m 	c #90DF67",
"n 	c #7BD057",
"o 	c #49A337",
"p 	c #86D461",
"q 	c #8FDB68",
"r 	c #58AD42",
"s 	c #5AB466",
"t 	c #76CB73",
"u 	c #7DCC5C",
"v 	c #B4F780",
"w 	c #9EE870",
"x 	c #7BCD68",
"y 	c #6AC371",
"z 	c #8DDC65",
"A 	c #349129",
"B 	c #55AA52",
"C 	c #69BE4C",
"D 	c #6BC24D",
"E 	c #3E9A32",
"F 	c #51A63A",
"G 	c #458541",
"H 	c #8AC95F",
"I 	c #B3F780",
"J 	c #559C71",
"K 	c #57AA66",
"L 	c #408153",
"M 	c #529356",
"N 	c #63AC62",
"O 	c #5BA771",
"P 	c #426A15",
"Q 	c #88D65F",
"R 	c #9EE772",
"S 	c #6EC251",
"T 	c #6CBF50",
"U 	c #61B446",
"V 	c #4C7B27",
"W 	c #40795A",
"X 	c #78CD56",
"Y 	c #477A35",
"Z 	c #8FD767",
"` 	c #46A135",
" .	c #508D51",
"..	c #4F9961",
"+.	c #488445",
"@.	c #3B7532",
"#.	c #426B15",
"$.	c #57AF40",
"%.	c #77A946",
"&.	c #3E681E",
"*.	c #508526",
"=.	c #558B2B",
"-.	c #82B851",
";.	c #99DE6A",
">.	c #82C958",
",.	c #62BA47",
"'.	c #4FA93B",
").	c #8ECB5E",
"!.	c #6DA23F",
"~.	c #407936",
"{.	c #589B39",
"].	c #3C640E",
"^.	c #61A23C",
"/.	c #507C22",
"(.	c #48751A",
"_.	c #5A9531",
":.	c #447A33",
"<.	c #35801E",
"[.	c #366B12",
"}.	c #6894AC",
"|.	c #86B8E0",
"1.	c #358521",
"2.	c #46751B",
"3.	c #357B1B",
"4.	c #87B8E0",
"5.	c #75A4BF",
"6.	c #417442",
"7.	c #6E9CB8",
"8.	c #469245",
"9.	c #44942D",
"0.	c #488927",
"a.	c #3C801F",
"b.	c #3A7B1D",
"c.	c #74A1C1",
"d.	c #5F8F76",
"e.	c #528946",
"f.	c #558948",
"g.	c #348F28",
"h.	c #63947C",
"i.	c #72A27E",
"j.	c #6A9B5D",
"k.	c #5D9144",
"l.	c #43752C",
"m.	c #37630D",
"n.	c #71A38C",
"o.	c #76A470",
"p.	c #6F9E53",
"q.	c #385B07",
"r.	c #407835",
"s.	c #6D9E53",
"t.	c #6C9C4E",
"u.	c #3B8B29",
"v.	c #58A53A",
"w.	c #5BAB3E",
"x.	c #3C8C2A",
"y.	c #558629",
"z.	c #6BB446",
"A.	c #70A050",
"B.	c #639446",
"C.	c #3E8421",
"D.	c #348B25",
"E.	c #39771A",
"F.	c #609245",
"G.	c #4F8338",
"H.	c #3B6419",
"I.	c #367519",
"J.	c #367116",
"K.	c #375D09",
"L.	c #568A3E",
"M.	c #50853B",
"N.	c #3F7928",
"O.	c #3F6C14",
"P.	c #36680F",
"Q.	c #3C7623",
"R.	c #55873B",
"S.	c #67994C",
"T.	c #428638",
"U.	c #467934",
"V.	c #75C34F",
"W.	c #3C6410",
"X.	c #438F45",
"Y.	c #6F9E4E",
"Z.	c #568943",
"`.	c #4F8731",
" +	c #629344",
".+	c #3A742F",
"++	c #395C09",
"@+	c #377227",
"#+	c #3D782F",
"$+	c #3E7525",
"%+	c #3A7529",
"&+	c #36632B",
"*+	c #72BE4C",
"=+	c #3C7122",
"-+	c #3B6C25",
";+	c #295420",
">+	c #3B693C",
",+	c #426913",
"'+	c #265A1F",
")+	c #255219",
"!+	c #20490C",
"~+	c #1F5211",
"{+	c #2A5925",
"]+	c #33642B",
"^+	c #426643",
"/+	c #20490B",
"(+	c #1F5311",
"_+	c #2E381E",
":+	c #2F4912",
"<+	c #284112",
"[+	c #274715",
"}+	c #41722F",
"|+	c #365B33",
"1+	c #263414",
"2+	c #2A4319",
"3+	c #43403A",
"4+	c #325008",
"5+	c #355707",
"6+	c #2E5A20",
"7+	c #31782D",
"8+	c #284F1C",
"9+	c #2C451B",
"0+	c #324719",
"a+	c #423937",
"b+	c #337E1F",
"c+	c #33761B",
"d+	c #348020",
"e+	c #358421",
"f+	c #2C903A",
"g+	c #358823",
"h+	c #357C1C",
"i+	c #2C9437",
"j+	c #32682C",
"k+	c #2E3D24",
"l+	c #368826",
"m+	c #358924",
"n+	c #348823",
"o+	c #358320",
"p+	c #368622",
"q+	c #367F1F",
"r+	c #348320",
"s+	c #35912B",
"t+	c #348C26",
"u+	c #3B4B1B",
"v+	c #37570A",
"w+	c #3A5113",
"x+	c #3A531E",
"y+	c #358D28",
"z+	c #389230",
"A+	c #37922E",
"B+	c #33912A",
"C+	c #394F15",
"D+	c #413C2F",
"E+	c #4C5C2B",
"F+	c #416C24",
"G+	c #444929",
"H+	c #3D4323",
"I+	c #367619",
"J+	c #33922C",
"K+	c #453C34",
"L+	c #6A5C59",
"M+	c #706060",
"N+	c #595D3D",
"O+	c #415A19",
"P+	c #465B20",
"Q+	c #584C48",
"R+	c #33912B",
"S+	c #6F605E",
"T+	c #4B4637",
"U+	c #544944",
"V+	c #38560C",
"W+	c #348C25",
"X+	c #349029",
"Y+	c #35811F",
"Z+	c #367418",
"`+	c #366D14",
" @	c #37660F",
".@	c #357B1C",
"+@	c #348E27",
"@@	c #348D26",
"#@	c #366E14",
"$@	c #37650E",
"%@	c #376A13",
"&@	c #358220",
"*@	c #5BA35F",
"=@	c #539E55",
"-@	c #4F9C50",
";@	c #499948",
">@	c #3C9436",
",@	c #399332",
"'@	c #338E28",
")@	c #349028",
"!@	c #A5D7B7",
"~@	c #A5D6B7",
"{@	c #A0D3B1",
"]@	c #9DD0AE",
"^@	c #9CCFAC",
"/@	c #8BC299",
"(@	c #81BB8D",
"_@	c #90C69E",
":@	c #96CAA5",
"<@	c #94C9A3",
"[@	c #8DC49B",
"}@	c #328D28",
"|@	c #358723",
"1@	c #338E29",
"2@	c #BBE9D0",
"3@	c #BAE8CF",
"4@	c #B9E7CE",
"5@	c #B7E6CB",
"6@	c #B5E4C9",
"7@	c #B0E0C4",
"8@	c #B1E1C5",
"9@	c #22A21A",
"0@	c #339028",
"a@	c #A3D5B5",
"b@	c #9ED1AF",
"                                    . + @                                     ",
"                                  # $ % % &                                   ",
"                                  * = - ; > .                                 ",
"                                  , ' - ) ! ~                                 ",
"                                { ] ^ - / ( _ &                               ",
"                          : < < [ } | - 1 2 3 4 5 <                           ",
"                      ~ 6 7 8 8 9 0 - - 1 2 a a 8 8 b b                       ",
"                      c d ( 1 1 2 e - - 1 2 f g h i j k <                     ",
"                      c l f m 1 2 e - - 1 2 f f 2 2 n o <                     ",
"                      c p | i q e 1 - - 1 2 0 g f 2 e r <                     ",
"              b 5 s t u q g 0 i v - - - v i / | w w g p x y 5 5               ",
"              , ! 9 l 2 2 p w - - - - - - - - - 1 i g z ' a j A ~             ",
"              B C D A E ' w - - - - - - - - - 1 i p | 8 d j 2 F b             ",
"            G H I q d ' i - - - - - - - - - - 0 m / 2 f a a v 1 _ @           ",
"            J B 9 a ' i 1 i 0 - - - - - - - - / w q e | z l 9 9 K             ",
"        L M t x u ' a h 2 p e - - - - - - - - e 0 0 ' i p 8 u u t N &         ",
"        O P Q | R ' 9 2 S q - - - ^ R - 1 q ) 0 q / T u C U q 1 w % {         ",
"          V ^ | u a f d q 1 h / - 8 u - | j ^ w g | i a a D 9 i e = +         ",
"          W c D 0 I e ! q 0 2 2 1 q 0 - 1 2 e - e X E l f q / 2 j <           ",
"          Y Z e / | p S a j ` j 2 i / - - | 1 i ( ! A l f q - | R =  .        ",
"    ..+.@.#.; - e 2 a X u u ' a 9 0 e g 0 I 2 U $.a a ( D C 0 I - %.&.+ $     ",
"    @.> *.=.-.;.>.] C q | - e X 9 ' ' ,.l 2 U '.a 2 m 2 ' U ] 0 ).!.*.*.~.O   ",
"    + {.( ' ].^.{.% - - - - e f Q j d ! E A l f 2 p | g 0 )./.C (._.X C :.#   ",
"      < j ' ].<.' 1 - - - - e 2 / a a n ( d l f q / 2 e 0 q ; ! [._.C c       ",
"}.|. .{.,.! 1.[.= 0 a h - i g | - i i | e 0 2 g i q e g 0 / ; 2.3.k 9 C Y 4.5.",
"6.7.8.9.j d a 0.{.' p 1 2 p e - - i e - I 0 0 0 0 0 ' q | i 8 a.F o d F b.c.d.",
"e.f.8.1.d 9 X a ! j p p j ' - - - w e - 1 g | e w ) ! S p S A j S l ` g.3.h.i.",
"j.k.l.b.9 f f ( a ! ! ! k C e v i 1 - - - - e | 1 g E d ! ! ` D X f D 9.m.n.o.",
"p.&.q._.n f f j a n n n o A a | ! ^ - - - - a ( ^ k A l n n ( d C f f ' ].r.s.",
"t.u.v.w.9 X j ,.( f f f o A x.y.C i i p q 1 2 ^.*.A A l f f n D 9 ,.D o z.9.A.",
"B.[ 4 9.C.9 k l f ' a X l o D.b.F 2 p f f g C 9.<.d a ( D ,.f f o ! 4 E.F C.F.",
"G.H.<.I.m.3.g.l ' a 9 X f l ` A j a ,.,.,.,.9 ! d 9 X f l 9 l n o 1.J.K.D.[.L.",
"M.N.[ b.O.m.1.a a 9 f f f X ,.` X o d ! E A l a '.' f f f D ` D 4 I.P.> 1.Q.R.",
"S.T.U._.l D.m.1.a n f f f a j n f o a n ( d l f l d X f f f ( d [.I.o V.W.X.Y.",
"Z.{ ^.w.! D.K.m.O.(./.( 9 d o f f o a f ( d l f l A ! D ^.(.> P.K.I.d o z.`. +",
".+H.3 ! A g.3.3.3.[.++y.k o l X a a a 9 9 a $.D ( a d 3 > m.3.3.3.1.A k 9 > @+",
"#+H.<.A D.3.g.A A <.q.q.J.v.f ( d l l F 9 X o a f ( C.m.q.[.A A A 1.1.A A $+%+",
"&+l.[ 1.3.m.D.D.D.1.m.m.K.=.*+z.x.w.( f f *+9.F *+z.].m.m.J.A 1.D.3.[.1.1.=+-+",
";+>+{ q.[.A A [.I.A g.g.[.q.++++q.++_.f ' ,+q.q.++++q.3.g.A D.m.<.A <.q.q.'+)+",
"!+~+{+]+[.D.[.3.D.A A A 1.1.1.<.K.q.W.(.> ++q.[.1.1.1.D.A A A 1.[.3.<.W.^+/+(+",
"_+:+<+[+m.[.q.<.A A A A 3.<.A g.3.3.3.3.3.3.3.1.A D.I.1.A A A A [.m.[.}+|+1+2+",
"3+4+5+6+7+[.q.<.A A g.3.J.3.A g.3.D.A A A A 1.1.A D.J.3.1.A A A [.m.I.8+9+0+a+",
"b+c+d+e+f+g+m.3.1.D.D.K.<.A D.1.K.<.A A A A [.J.D.A A [.I.D.1.1.[.h+i+j+5+q.k+",
"l+1.1.1.m+n+o+[.q.[.D.K.<.A <.q.q.<.A A A A [.q.[.A A [.I.<.q.q.o+n+m+p+e+q+r+",
"1.1.1.1.m+n+o+[.q.K.m.q.m.3.<.q.q.m.3.A D.[.K.q.[.D.[.K.K.m.q.q.o+n+m+1.1.1.l+",
"s+s+A A A t+I.K.q.q.q.q.q.m.H.u+v+q.I.A D.K.q.w+x+[.q.q.q.q.q.q.[.o+A A g.s+y+",
"z+A+B+A A D.K.q.q.q.q.q.q.q.C+D+E+E+F+3.b.E+E+G+H+q.q.q.q.q.q.q.q.I+A A A A+z+",
"s+A J+A A D.K.q.q.q.q.q.q.q.C+K+L+M+N+O+P+L+M+Q+H+q.q.q.q.q.q.q.q.I.A A A A s+",
"A+s+R+A A D.K.q.q.q.q.q.q.q.C+K+L+M+S+S+S+M+M+Q+H+q.q.q.q.q.q.q.q.I.A A A s+A+",
"A+A A A A A 1.m.q.q.q.q.q.q.v+C+T+L+M+M+M+L+U+G+V+q.q.q.q.q.q.q.I.W+A A A A A+",
"s+A A+X+A A A <.[.q.q.q.q.q.q.v+u+T+U+U+U+U+G+w+q.q.q.q.q.q.q.I.W+A A A A A s+",
"A s+s+s+A A A A Y+Z+`+q.q.q.q.q.q.u+H+H+H+H+w+q.q.q.q.q. @Z+.@+@A A A A s+s+A ",
"A+s+A+A+A+A A A A A @@#@$@K.q.q.q.q.q.q.q.q.q.q.q.q.$@%@&@A A A A A A A+A+s+A+",
"*@=@-@;@-@>@,@'@A A A A g.I.q.q.q.q.q.q.q.q.q.q.q.K.t+)@A A A A ,@>@-@;@-@=@*@",
"!@~@{@]@^@/@(@_@:@<@[@}@A D.|@1.1.1.1.1.1.1.1.1.1.1.A A 1@<@:@_@(@/@^@]@{@~@!@",
"2@2@2@3@3@3@3@4@5@6@7@8@4@2@9@A A A A A A A A A 0@a@4@8@b@6@5@4@3@3@3@3@2@2@2@"};
